<?xml version="1.0" standalone="no"?>
<!DOCTYPE svg PUBLIC "-//W3C//DTD SVG 20010904//EN"
 "http://www.w3.org/TR/2001/REC-SVG-20010904/DTD/svg10.dtd">
<svg version="1.0" xmlns="http://www.w3.org/2000/svg"
 width="100.000000pt" height="100.000000pt" viewBox="0 0 100.000000 100.000000"
 preserveAspectRatio="xMidYMid meet">
<metadata>
Created by potrace 1.11, written by Peter Selinger 2001-2013
</metadata>
<g transform="translate(0.000000,100.000000) scale(0.100000,-0.100000)"
fill="#000000" stroke="none">
<path d="M393 986 c-216 -53 -383 -262 -383 -481 0 -225 175 -437 398 -484
255 -53 517 115 577 370 19 81 19 147 0 228 -62 260 -334 429 -592 367z m18
-337 c50 -71 95 -127 99 -122 4 4 44 64 89 131 46 68 84 122 85 120 2 -1 34
-106 71 -233 37 -126 69 -233 72 -237 2 -5 -45 -8 -104 -8 l-108 0 -24 93
c-41 159 -32 156 -111 38 l-68 -104 -68 92 c-37 50 -70 91 -74 91 -4 0 -15
-30 -24 -67 -33 -133 -37 -143 -51 -143 -8 0 -15 6 -15 12 0 13 133 468 137
468 1 0 43 -59 94 -131z"/>
</g>
</svg>
